<?xml version="1.0" encoding="utf-8"?>
<!-- Generator: Adobe Illustrator 23.1.1, SVG Export Plug-In . SVG Version: 6.00 Build 0)  -->
<svg version="1.1" id="Layer_1" xmlns="http://www.w3.org/2000/svg" xmlns:xlink="http://www.w3.org/1999/xlink" x="0px" y="0px"
	 viewBox="0 0 924 519" style="enable-background:new 0 0 924 519;" xml:space="preserve">
<style type="text/css">
	.st0{fill:url(#SVGID_1_);}
	.st1{fill:url(#SVGID_2_);}
	.st2{fill:url(#SVGID_3_);}
	.st3{fill:#E89C21;}
	.st4{fill:#FFC866;}
	.st5{fill:#ED9572;}
	.st6{fill:#FFBF94;}
	.st7{fill:#FFFFFF;}
	.st8{fill:#5BDEFF;}
	.st9{fill:#E5E5E5;}
	.st10{fill:#EFA5A5;}
	.st11{fill:#19929B;}
	.st12{fill:url(#SVGID_4_);}
	.st13{fill:url(#SVGID_5_);}
	.st14{fill:url(#SVGID_6_);}
	.st15{fill:url(#SVGID_7_);}
	.st16{fill:url(#SVGID_8_);}
	.st17{fill:url(#SVGID_9_);}
	.st18{fill:url(#SVGID_10_);}
	.st19{fill:url(#SVGID_11_);}
	.st20{fill:#00B9D8;}
	.st21{fill:url(#SVGID_12_);}
	.st22{fill:url(#SVGID_13_);}
	.st23{fill:url(#SVGID_14_);}
</style>
<g id="bomb__x2C__tint__x2C__weapon__x2C__fire__x2C__blast_x2C_">
	<g>
		<linearGradient id="SVGID_1_" gradientUnits="userSpaceOnUse" x1="203.1912" y1="70.6697" x2="346.1746" y2="70.6697">
			<stop  offset="0" style="stop-color:#FFFFFF"/>
			<stop  offset="8.510864e-02" style="stop-color:#FFEFD8"/>
			<stop  offset="0.2082" style="stop-color:#FFDCA7"/>
			<stop  offset="0.3345" style="stop-color:#FFCB7D"/>
			<stop  offset="0.462" style="stop-color:#FFBD5B"/>
			<stop  offset="0.591" style="stop-color:#FFB240"/>
			<stop  offset="0.7222" style="stop-color:#FFAA2D"/>
			<stop  offset="0.8568" style="stop-color:#FFA622"/>
			<stop  offset="1" style="stop-color:#FFA41E"/>
		</linearGradient>
		<path class="st0" d="M326.5,24.7c-52,12.5-88.3,24.6-120.1,66.5c-7.2,9.5-1.7,23.2,10,25.3l1.9,0.3c6.3,1.1,12.6-1.7,16-7.1
			c22.8-35.1,58.4-47,98.6-53.9c8.5-1.5,14.3-9.4,13.1-17.9l0,0C344.7,28.6,335.6,22.5,326.5,24.7z"/>
		
			<linearGradient id="SVGID_2_" gradientUnits="userSpaceOnUse" x1="0.2327" y1="240.9925" x2="499.5184" y2="240.9925" gradientTransform="matrix(1 0 0 -1 0 536)">
			<stop  offset="0" style="stop-color:#000000"/>
			<stop  offset="1" style="stop-color:#3D4148"/>
		</linearGradient>
		<path class="st1" d="M290.6,158.9l6.6-43.1l-26.4-4.1l3.7-25.1L186.2,73l-3.9,25l-26.6-4l-6.6,43.1c-74.3,17.2-134.4,78-146.7,158
			c-16.2,105.1,55.8,203.3,160.8,219.6c105,16.2,203.3-55.8,219.5-160.9C395.3,273.9,356.4,197.8,290.6,158.9z"/>
		
			<linearGradient id="SVGID_3_" gradientUnits="userSpaceOnUse" x1="304.7246" y1="209.9742" x2="397.5725" y2="209.9742" gradientTransform="matrix(1 0 0 -1 0 536)">
			<stop  offset="0" style="stop-color:#162029"/>
			<stop  offset="1" style="stop-color:#50666E"/>
		</linearGradient>
		<path class="st2" d="M304.7,178.5c5.3,8.8,10,18.2,14.3,28c23,29.9,32,71.4,32,119.5c0,49.5-9.8,95.2-34.1,125.1
			c-3.6,7.8-7.5,15.3-11.7,22.5c38.5-26.2,71.2-82.3,71.2-147.4C376.3,260.8,343.4,204.6,304.7,178.5z"/>
	</g>
</g>
<g>
	<path class="st3" d="M303.7,432.1c0,62.3-225.8,62.3-225.8,0c0-62.3,50.5-112.9,112.9-112.9S303.7,369.8,303.7,432.1z"/>
	<path class="st4" d="M190.8,319.2c-55.7,0-102,40.4-111.2,93.5c19.4,50.4,203,50.4,222.4,0C292.8,359.6,246.6,319.2,190.8,319.2z"
		/>
	<path class="st5" d="M78.1,432.1c0,17.1,16.9,29.4,41.4,37.2V344.8C94.2,365.5,78.1,396.9,78.1,432.1z"/>
	<path class="st5" d="M303.5,432.1c0-31.8-13.2-60.5-34.3-81v115.7C289.8,459,303.5,447.5,303.5,432.1z"/>
	<path class="st6" d="M79.8,412.7c4.8,12.5,19.8,21.9,39.8,28.2v-96.2C99,361.6,84.5,385.5,79.8,412.7z"/>
	<path class="st6" d="M301.9,412.7c-4.2-24-15.9-45.4-32.6-61.6v87.4C285.6,432.3,297.6,423.7,301.9,412.7z"/>
	<path class="st7" d="M250.5,415.7c0,15.1-12.2,27.3-27.3,27.3h-63.5c-15.1,0-27.3-12.2-27.3-27.3v-99.5c0-15.1,12.2-27.3,27.3-27.3
		h63.5c15.1,0,27.3,12.2,27.3,27.3V415.7z"/>
	<g>
		<path class="st8" d="M200.5,308.9c16.5,0,30,13.5,30,30v54c0,16.5-13.5,30-30,30h-18c-16.5,0-30-13.5-30-30v-54
			c0-16.5,13.5-30,30-30H200.5 M200.5,298.9h-18c-22.1,0-40,17.9-40,40v54c0,22.1,17.9,40,40,40h18c22.1,0,40-17.9,40-40v-54
			C240.5,316.9,222.6,298.9,200.5,298.9L200.5,298.9z"/>
	</g>
	<path class="st9" d="M191.6,290.7c-19.9,0-36.8,13.1-42.6,31.1c5.8,18,22.6,31.1,42.6,31.1s36.8-13.1,42.6-31.1
		C228.5,303.7,211.6,290.7,191.6,290.7z"/>
	<circle class="st6" cx="52.4" cy="216" r="36.5"/>
	<path class="st5" d="M52.4,238.3c-17.8,0-32.5-12.7-35.8-29.4c-0.5,2.3-0.7,4.7-0.7,7.1c0,20.2,16.4,36.5,36.5,36.5
		c20.2,0,36.5-16.4,36.5-36.5c0-2.4-0.2-4.8-0.7-7.1C84.9,225.6,70.1,238.3,52.4,238.3z"/>
	<circle class="st6" cx="330.9" cy="216" r="36.5"/>
	<path class="st5" d="M330.9,238.3c-17.8,0-32.5-12.7-35.8-29.4c-0.5,2.3-0.7,4.7-0.7,7.1c0,20.2,16.4,36.5,36.5,36.5
		s36.5-16.4,36.5-36.5c0-2.4-0.2-4.8-0.7-7.1C363.5,225.6,348.7,238.3,330.9,238.3z"/>
	<path class="st6" d="M319.5,161.4c-2.9-68.2-55.8-112.7-128-112.7v0c0,0,0,0,0,0s0,0,0,0v0c-72.2,0-125.1,44.5-128,112.7h-0.1v78.5
		h0.1c2.9,68.2,60.1,100.9,128,100.9l0,0c0,0,0,0,0,0s0,0,0,0l0,0c67.8,0,125.1-32.7,128-100.9h0.1v-78.5L319.5,161.4L319.5,161.4z"
		/>
	<circle class="st10" cx="109.7" cy="250.3" r="30.5"/>
	<circle class="st10" cx="273.3" cy="250.3" r="30.5"/>
	<circle class="st7" cx="143.9" cy="196.9" r="17.4"/>
	<circle class="st7" cx="239" cy="196.9" r="17.5"/>
	<circle class="st11" cx="191.5" cy="256.4" r="30.5"/>
	<circle class="st7" cx="191.5" cy="256.4" r="20.5"/>
	<path class="st9" d="M191.5,266.9c-9.6,0-17.6-6.6-19.9-15.5c-0.4,1.6-0.6,3.3-0.6,5c0,11.3,9.2,20.5,20.5,20.5
		c11.3,0,20.5-9.2,20.5-20.5c0-1.7-0.2-3.4-0.6-5C209.1,260.3,201.1,266.9,191.5,266.9z"/>
</g>
<g>
	<linearGradient id="SVGID_4_" gradientUnits="userSpaceOnUse" x1="431.2598" y1="265.9644" x2="531.7637" y2="265.9644">
		<stop  offset="0" style="stop-color:#000000"/>
		<stop  offset="1" style="stop-color:#3D4148"/>
	</linearGradient>
	<path class="st12" d="M431.3,238.9c0-15.1,12.2-27.3,27.3-27.3h35.6c10.5,0,18.5,2.6,24.1,7.8c5.6,5.2,8.4,11.6,8.4,19.3
		c0,6.4-2,11.9-6,16.5c-2.7,3.1-6.6,5.5-11.7,7.3c7.8,1.9,13.6,5.1,17.2,9.7c3.7,4.6,5.5,10.3,5.5,17.2c0,5.6-1.3,10.7-3.9,15.2
		c-2.6,4.5-6.2,8.1-10.8,10.7c-2.8,1.6-7.1,2.8-12.8,3.6c-7.6,1-12.6,1.5-15.1,1.5h-30.7c-15.1,0-27.3-12.2-27.3-27.3V238.9z
		 M465.2,254.2h14.6c5.2,0,8.9-0.9,10.9-2.7c2.1-1.8,3.1-4.4,3.1-7.8c0-3.2-1-5.6-3.1-7.4c-2.1-1.8-5.6-2.7-10.7-2.7h-14.8V254.2z
		 M465.2,297h17.1c5.8,0,9.9-1,12.2-3.1c2.4-2.1,3.6-4.8,3.6-8.3c0-3.2-1.2-5.8-3.5-7.8c-2.3-2-6.5-2.9-12.3-2.9h-17.1V297z"/>
	<linearGradient id="SVGID_5_" gradientUnits="userSpaceOnUse" x1="545.1152" y1="265.9644" x2="657.7832" y2="265.9644">
		<stop  offset="0" style="stop-color:#000000"/>
		<stop  offset="1" style="stop-color:#3D4148"/>
	</linearGradient>
	<path class="st13" d="M545.1,266c0-17.8,4.9-31.6,14.8-41.5c9.9-9.9,23.7-14.8,41.3-14.8c18.1,0,32,4.9,41.8,14.6
		c9.8,9.7,14.7,23.3,14.7,40.8c0,12.7-2.1,23.1-6.4,31.3c-4.3,8.1-10.5,14.5-18.5,19s-18.2,6.8-30.2,6.8c-12.3,0-22.4-2-30.4-5.9
		c-8-3.9-14.5-10.1-19.5-18.5C547.6,289.3,545.1,278.7,545.1,266z M578.7,266.2c0,11,2,18.9,6.1,23.7c4.1,4.8,9.6,7.2,16.7,7.2
		c7.2,0,12.8-2.3,16.8-7c4-4.7,5.9-13.1,5.9-25.3c0-10.2-2.1-17.7-6.2-22.4c-4.1-4.7-9.7-7.1-16.8-7.1c-6.8,0-12.2,2.4-16.3,7.2
		C580.8,247.2,578.7,255.1,578.7,266.2z"/>
	<linearGradient id="SVGID_6_" gradientUnits="userSpaceOnUse" x1="671.6543" y1="265.9644" x2="784.3223" y2="265.9644">
		<stop  offset="0" style="stop-color:#000000"/>
		<stop  offset="1" style="stop-color:#3D4148"/>
	</linearGradient>
	<path class="st14" d="M671.7,266c0-17.8,4.9-31.6,14.8-41.5c9.9-9.9,23.7-14.8,41.3-14.8c18.1,0,32,4.9,41.8,14.6
		c9.8,9.7,14.7,23.3,14.7,40.8c0,12.7-2.1,23.1-6.4,31.3c-4.3,8.1-10.5,14.5-18.5,19s-18.2,6.8-30.2,6.8c-12.3,0-22.4-2-30.4-5.9
		c-8-3.9-14.5-10.1-19.5-18.5C674.2,289.3,671.7,278.7,671.7,266z M705.3,266.2c0,11,2,18.9,6.1,23.7c4.1,4.8,9.6,7.2,16.7,7.2
		c7.2,0,12.8-2.3,16.8-7c4-4.7,5.9-13.1,5.9-25.3c0-10.2-2.1-17.7-6.2-22.4c-4.1-4.7-9.7-7.1-16.8-7.1c-6.8,0-12.2,2.4-16.3,7.2
		C707.3,247.2,705.3,255.1,705.3,266.2z"/>
	<linearGradient id="SVGID_7_" gradientUnits="userSpaceOnUse" x1="802.0488" y1="265.9644" x2="924.3604" y2="265.9644">
		<stop  offset="0" style="stop-color:#000000"/>
		<stop  offset="1" style="stop-color:#3D4148"/>
	</linearGradient>
	<path class="st15" d="M826.9,211.6L826.9,211.6c11.4,0,21.3,7.7,24.1,18.7l12.2,47.5l12.1-47.5c2.8-11,12.7-18.7,24.1-18.7h0
		c13.7,0,24.9,11.1,24.9,24.9v70.1c0,7.6-6.2,13.8-13.8,13.8l0,0c-7.6,0-13.8-6.2-13.8-13.8v-69.2L878.3,310
		c-1.6,6.1-7,10.4-13.3,10.4h-3.5c-6.3,0-11.8-4.3-13.3-10.4l-18.5-72.6v69.2c0,7.6-6.2,13.8-13.8,13.8l0,0
		c-7.6,0-13.8-6.2-13.8-13.8v-70.1C802,222.7,813.2,211.6,826.9,211.6z"/>
</g>
<g>
	<linearGradient id="SVGID_8_" gradientUnits="userSpaceOnUse" x1="430.5801" y1="389.2788" x2="495.9355" y2="389.2788">
		<stop  offset="0" style="stop-color:#000000"/>
		<stop  offset="1" style="stop-color:#3D4148"/>
	</linearGradient>
	<path class="st16" d="M430.6,419.6v-60.7c0-7.1,5.8-12.9,12.9-12.9h19.6c6.6,0,11.9,0.9,15.9,2.6c4,1.8,7.1,4.4,9.4,8.1
		c2.3,3.6,3.4,7.4,3.4,11.4c0,3.7-1,7.2-3,10.5c-2,3.3-5,5.9-9.1,7.9c5.2,1.5,9.3,4.2,12.1,7.9c2.8,3.7,4.2,8.1,4.2,13.1
		c0,4.1-0.9,7.8-2.6,11.3s-3.8,6.2-6.3,8.1s-5.7,3.3-9.5,4.3c-3.8,1-8.5,1.4-14,1.4h-20.1C436.4,432.6,430.6,426.8,430.6,419.6z
		 M442,382.4h18.7c5.1,0,8.7-0.3,10.9-1c2.9-0.9,5.1-2.3,6.6-4.3c1.5-2,2.2-4.5,2.2-7.6c0-2.9-0.7-5.4-2.1-7.6
		c-1.4-2.2-3.3-3.7-5.9-4.5s-6.9-1.2-13.2-1.2H442V382.4z M442,422.3h21.5c3.7,0,6.3-0.1,7.8-0.4c2.6-0.5,4.8-1.3,6.6-2.4
		c1.8-1.1,3.2-2.7,4.4-4.8s1.7-4.5,1.7-7.3c0-3.2-0.8-6-2.5-8.4c-1.7-2.4-3.9-4.1-6.9-5c-2.9-1-7.2-1.4-12.7-1.4h-20V422.3z"/>
	<linearGradient id="SVGID_9_" gradientUnits="userSpaceOnUse" x1="504.7565" y1="389.2788" x2="580.4378" y2="389.2788">
		<stop  offset="0" style="stop-color:#000000"/>
		<stop  offset="1" style="stop-color:#3D4148"/>
	</linearGradient>
	<path class="st17" d="M505.1,424.9l28.1-73.1c1.3-3.5,4.7-5.8,8.5-5.8l0,0c3.7,0,7,2.2,8.4,5.6l29.9,73.1c1.5,3.7-1.2,7.8-5.2,7.8
		H574c-2.3,0-4.4-1.4-5.3-3.6l-8.7-22.6h-36.2l-8.2,22.5c-0.8,2.2-2.9,3.7-5.3,3.7h0C506.4,432.6,503.7,428.6,505.1,424.9z
		 M531.4,397h21c2,0,3.4-2,2.7-3.9l-7.6-20c-1-2.6-1.9-5.1-2.7-7.3c-1.1-3-5.2-2.8-6.2,0.2c-0.6,1.9-1.2,3.8-1.9,5.8l-8,21.5
		C527.9,395,529.3,397,531.4,397z"/>
	<linearGradient id="SVGID_10_" gradientUnits="userSpaceOnUse" x1="591.8721" y1="389.2788" x2="657.2275" y2="389.2788">
		<stop  offset="0" style="stop-color:#000000"/>
		<stop  offset="1" style="stop-color:#3D4148"/>
	</linearGradient>
	<path class="st18" d="M591.9,421v-63.4c0-6.4,5.2-11.6,11.6-11.6h20.9c6.6,0,11.9,0.9,15.9,2.6c4,1.8,7.1,4.4,9.4,8.1
		c2.3,3.6,3.4,7.4,3.4,11.4c0,3.7-1,7.2-3,10.5c-2,3.3-5,5.9-9.1,7.9c5.2,1.5,9.3,4.2,12.1,7.9c2.8,3.7,4.2,8.1,4.2,13.1
		c0,4.1-0.9,7.8-2.6,11.3s-3.8,6.2-6.3,8.1s-5.7,3.3-9.5,4.3c-3.8,1-8.5,1.4-14,1.4h-21.4C597.1,432.6,591.9,427.4,591.9,421z
		 M603.3,382.4H622c5.1,0,8.7-0.3,10.9-1c2.9-0.9,5.1-2.3,6.6-4.3c1.5-2,2.2-4.5,2.2-7.6c0-2.9-0.7-5.4-2.1-7.6
		c-1.4-2.2-3.3-3.7-5.9-4.5s-6.9-1.2-13.2-1.2h-17.3V382.4z M603.3,422.3h21.5c3.7,0,6.3-0.1,7.8-0.4c2.6-0.5,4.8-1.3,6.6-2.4
		c1.8-1.1,3.2-2.7,4.4-4.8s1.7-4.5,1.7-7.3c0-3.2-0.8-6-2.5-8.4c-1.7-2.4-3.9-4.1-6.9-5c-2.9-1-7.2-1.4-12.7-1.4h-20V422.3z"/>
	<linearGradient id="SVGID_11_" gradientUnits="userSpaceOnUse" x1="668.7605" y1="389.2788" x2="738.4199" y2="389.2788">
		<stop  offset="0" style="stop-color:#000000"/>
		<stop  offset="1" style="stop-color:#3D4148"/>
	</linearGradient>
	<path class="st19" d="M697.4,426.8v-30.9l-27.7-41.4c-2.4-3.6,0.2-8.5,4.5-8.5h0.8c1.8,0,3.6,0.9,4.6,2.5l15.4,23.6
		c3.1,4.9,6.1,9.8,8.8,14.6c2.6-4.5,5.7-9.6,9.4-15.3l15.2-23c1-1.5,2.7-2.5,4.6-2.5l0,0c4.4,0,7,4.9,4.5,8.6l-28.6,41.3v30.9
		c0,3.2-2.6,5.7-5.7,5.7l0,0C699.9,432.6,697.4,430,697.4,426.8z"/>
</g>
<circle class="st20" cx="147.4" cy="193.9" r="9.8"/>
<circle class="st20" cx="242.3" cy="193.9" r="9.9"/>
<linearGradient id="SVGID_12_" gradientUnits="userSpaceOnUse" x1="341" y1="7.5" x2="356" y2="7.5">
	<stop  offset="0" style="stop-color:#FFFFFF"/>
	<stop  offset="8.510864e-02" style="stop-color:#FFEFD8"/>
	<stop  offset="0.2082" style="stop-color:#FFDCA7"/>
	<stop  offset="0.3345" style="stop-color:#FFCB7D"/>
	<stop  offset="0.462" style="stop-color:#FFBD5B"/>
	<stop  offset="0.591" style="stop-color:#FFB240"/>
	<stop  offset="0.7222" style="stop-color:#FFAA2D"/>
	<stop  offset="0.8568" style="stop-color:#FFA622"/>
	<stop  offset="1" style="stop-color:#FFA41E"/>
</linearGradient>
<circle class="st21" cx="348.5" cy="7.5" r="7.5"/>
<linearGradient id="SVGID_13_" gradientUnits="userSpaceOnUse" x1="360" y1="21.5" x2="381" y2="21.5">
	<stop  offset="0" style="stop-color:#FFFFFF"/>
	<stop  offset="8.510864e-02" style="stop-color:#FFF7D8"/>
	<stop  offset="0.2082" style="stop-color:#FFEDA7"/>
	<stop  offset="0.3345" style="stop-color:#FFE57D"/>
	<stop  offset="0.462" style="stop-color:#FFDE5B"/>
	<stop  offset="0.591" style="stop-color:#FFD940"/>
	<stop  offset="0.7222" style="stop-color:#FFD52D"/>
	<stop  offset="0.8568" style="stop-color:#FFD322"/>
	<stop  offset="1" style="stop-color:#FFD21E"/>
</linearGradient>
<circle class="st22" cx="370.5" cy="21.5" r="10.5"/>
<linearGradient id="SVGID_14_" gradientUnits="userSpaceOnUse" x1="357" y1="48.5" x2="372" y2="48.5">
	<stop  offset="0" style="stop-color:#FFFFFF"/>
	<stop  offset="8.510864e-02" style="stop-color:#FFEFD8"/>
	<stop  offset="0.2082" style="stop-color:#FFDCA7"/>
	<stop  offset="0.3345" style="stop-color:#FFCB7D"/>
	<stop  offset="0.462" style="stop-color:#FFBD5B"/>
	<stop  offset="0.591" style="stop-color:#FFB240"/>
	<stop  offset="0.7222" style="stop-color:#FFAA2D"/>
	<stop  offset="0.8568" style="stop-color:#FFA622"/>
	<stop  offset="1" style="stop-color:#FFA41E"/>
</linearGradient>
<circle class="st23" cx="364.5" cy="48.5" r="7.5"/>
</svg>
